<svg width="33" height="33" fill="none" xmlns="http://www.w3.org/2000/svg"><circle cx="16.5" cy="16.5" r="16.5" fill="url(#paint0_linear)"/><path d="M22.877 19.19a7.95 7.95 0 01-2.497-.398c-.39-.134-.87-.011-1.11.234l-1.573 1.188c-1.826-.974-2.95-2.099-3.912-3.91l1.154-1.534c.3-.299.407-.736.278-1.146a7.96 7.96 0 01-.4-2.5c0-.62-.503-1.124-1.123-1.124h-2.57c-.62 0-1.124.504-1.124 1.123C10 18.223 15.776 24 22.877 24c.619 0 1.123-.504 1.123-1.123v-2.564c0-.62-.504-1.124-1.123-1.124z" fill="#fff"/><defs><linearGradient id="paint0_linear" x1="17.068" y1="71.199" x2="-16.203" y2="60.553" gradientUnits="userSpaceOnUse"><stop stop-color="#F58656"/><stop offset="1" stop-color="#FE5626"/></linearGradient></defs></svg>